<svg width="44" height="44" viewBox="0 0 44 44" fill="none" xmlns="http://www.w3.org/2000/svg"><path d="M37.7143 31.4146C36.5953 31.4208 35.4987 31.7285 34.54 32.3052L28.5481 26.3145C29.4018 25.0338 29.8574 23.5292 29.8574 21.9902C29.8574 20.4513 29.4018 18.9467 28.5481 17.666L32.5506 13.6654C33.5631 14.1528 34.7155 14.2664 35.8037 13.9859C36.8919 13.7054 37.8457 13.0489 38.496 12.1328C39.1464 11.2167 39.4514 10.1001 39.3569 8.98071C39.2625 7.86136 38.7747 6.81155 37.9801 6.01725C37.1854 5.22294 36.1351 4.73541 35.0153 4.64102C33.8955 4.54663 32.7783 4.85146 31.8618 5.50153C30.9453 6.1516 30.2886 7.10495 30.0079 8.19268C29.7273 9.28041 29.8409 10.4323 30.3286 11.4444L26.3261 15.445C25.0449 14.5917 23.5396 14.1364 22 14.1364C20.4604 14.1364 18.9551 14.5917 17.6739 15.445L11.6804 9.45424C12.2572 8.49638 12.5649 7.40086 12.5714 6.28293C12.5714 5.04028 12.2028 3.82554 11.5121 2.79232C10.8214 1.7591 9.83972 0.953802 8.69115 0.478262C7.54259 0.00272227 6.27874 -0.121701 5.05943 0.120727C3.84013 0.363156 2.72012 0.961546 1.84105 1.84023C0.961973 2.71891 0.363317 3.83842 0.120781 5.05719C-0.121755 6.27596 0.00272348 7.53925 0.478474 8.6873C0.954225 9.83535 1.75988 10.8166 2.79356 11.507C3.82724 12.1974 5.04252 12.5659 6.28572 12.5659C7.40468 12.5597 8.50126 12.252 9.46 11.6752L15.4519 17.666C14.5982 18.9467 14.1426 20.4513 14.1426 21.9902C14.1426 23.5292 14.5982 25.0338 15.4519 26.3145L9.45843 32.3052C8.50015 31.7288 7.40414 31.4211 6.28572 31.4146C5.04252 31.4146 3.82724 31.7831 2.79356 32.4735C1.75988 33.1639 0.954225 34.1451 0.478474 35.2932C0.00272348 36.4412 -0.121755 37.7045 0.120781 38.9233C0.363317 40.1421 0.961973 41.2616 1.84105 42.1403C2.72012 43.0189 3.84013 43.6173 5.05943 43.8598C6.27874 44.1022 7.54259 43.9778 8.69115 43.5022C9.83972 43.0267 10.8214 42.2214 11.5121 41.1882C12.2028 40.1549 12.5714 38.9402 12.5714 37.6976C12.5652 36.5791 12.2574 35.483 11.6804 34.5247L17.6739 28.5355C18.5101 29.0912 19.4453 29.4815 20.4286 29.6853V34.8451C19.3801 35.2156 18.4964 35.9447 17.9337 36.9035C17.371 37.8623 17.1656 38.9891 17.3536 40.0846C17.5417 41.1802 18.1111 42.1741 18.9614 42.8906C19.8116 43.607 20.8879 44 22 44C23.1121 44 24.1884 43.607 25.0386 42.8906C25.8889 42.1741 26.4583 41.1802 26.6464 40.0846C26.8344 38.9891 26.629 37.8623 26.0663 36.9035C25.5036 35.9447 24.6199 35.2156 23.5714 34.8451V29.6853C24.5547 29.4815 25.4899 29.0912 26.3261 28.5355L32.3196 34.5263C31.7428 35.4841 31.4351 36.5796 31.4286 37.6976C31.4286 38.9402 31.7972 40.1549 32.4879 41.1882C33.1786 42.2214 34.1603 43.0267 35.3088 43.5022C36.4574 43.9778 37.7213 44.1022 38.9406 43.8598C40.1599 43.6173 41.2799 43.0189 42.159 42.1403C43.038 41.2616 43.6367 40.1421 43.8792 38.9233C44.1218 37.7045 43.9973 36.4412 43.5215 35.2932C43.0458 34.1451 42.2401 33.1639 41.2064 32.4735C40.1728 31.7831 38.9575 31.4146 37.7143 31.4146ZM22 17.278C22.9324 17.278 23.8439 17.5544 24.6191 18.0722C25.3944 18.59 25.9986 19.3259 26.3554 20.187C26.7122 21.048 26.8056 21.9955 26.6237 22.9095C26.4418 23.8236 25.9928 24.6633 25.3335 25.3223C24.6742 25.9813 23.8342 26.4301 22.9197 26.6119C22.0052 26.7937 21.0573 26.7004 20.1959 26.3437C19.3345 25.9871 18.5982 25.3831 18.0802 24.6082C17.5622 23.8333 17.2857 22.9222 17.2857 21.9902C17.287 20.7409 17.784 19.543 18.6679 18.6596C19.5517 17.7762 20.7501 17.2793 22 17.278ZM3.14286 6.28293C3.14286 5.66161 3.32718 5.05424 3.67253 4.53763C4.01787 4.02101 4.50871 3.61836 5.083 3.38059C5.65728 3.14282 6.2892 3.08061 6.89886 3.20183C7.50851 3.32304 8.06851 3.62224 8.50805 4.06158C8.94759 4.50092 9.24692 5.06068 9.36818 5.67006C9.48945 6.27944 9.42721 6.91109 9.18934 7.48511C8.95146 8.05914 8.54863 8.54977 8.03179 8.89496C7.51495 9.24015 6.90731 9.42439 6.28572 9.42439C5.45218 9.42439 4.65278 9.09342 4.06338 8.50428C3.47398 7.91514 3.14286 7.1161 3.14286 6.28293ZM6.28572 40.839C5.66412 40.839 5.05648 40.6548 4.53964 40.3096C4.0228 39.9644 3.61997 39.4738 3.38209 38.8997C3.14422 38.3257 3.08198 37.6941 3.20325 37.0847C3.32452 36.4753 3.62384 35.9156 4.06338 35.4762C4.50292 35.0369 5.06292 34.7377 5.67257 34.6165C6.28223 34.4952 6.91415 34.5575 7.48844 34.7952C8.06272 35.033 8.55356 35.4356 8.89891 35.9523C9.24425 36.4689 9.42857 37.0762 9.42857 37.6976C9.42857 38.5307 9.09745 39.3298 8.50805 39.9189C7.91865 40.508 7.11925 40.839 6.28572 40.839ZM37.7143 40.839C37.0927 40.839 36.485 40.6548 35.9682 40.3096C35.4514 39.9644 35.0485 39.4738 34.8107 38.8997C34.5728 38.3257 34.5105 37.6941 34.6318 37.0847C34.7531 36.4753 35.0524 35.9156 35.4919 35.4762C35.9315 35.0369 36.4915 34.7377 37.1011 34.6165C37.7108 34.4952 38.3427 34.5575 38.917 34.7952C39.4913 35.033 39.9821 35.4356 40.3275 35.9523C40.6728 36.4689 40.8571 37.0762 40.8571 37.6976C40.8559 38.5303 40.5244 39.3287 39.9352 39.9175C39.3461 40.5064 38.5474 40.8378 37.7143 40.839Z" fill="#FFE7BA"/></svg>